<svg xmlns="http://www.w3.org/2000/svg" width="32" height="32" style="fill: white;" viewBox="0 0 16 16">
  <path fill-rule="evenodd" d="M8 .012A7.993 7.993 0 0 1 15.988 8 7.993 7.993 0 0 1 8 15.988 7.993 7.993 0 0 1 .012 8 7.993 7.993 0 0 1 8 .012zm0 1.976A6.015 6.015 0 0 1 14.012 8 6.015 6.015 0 0 1 8 14.012 6.015 6.015 0 0 1 1.988 8 6.015 6.015 0 0 1 8 1.988zm0 4.589l1.773-1.773a1.006 1.006 0 1 1 1.423 1.423L9.423 8l1.742 1.742c.392.393.392 1.03 0 1.423a1.008 1.008 0 0 1-1.423 0L8 9.423l-1.773 1.773a1.006 1.006 0 1 1-1.423-1.423L6.577 8 4.835 6.258a1.008 1.008 0 0 1 0-1.423 1.008 1.008 0 0 1 1.423 0L8 6.577z"/>
</svg>